<?xml version="1.0" encoding="utf-8"?>
<!-- Generator: Adobe Illustrator 16.0.4, SVG Export Plug-In . SVG Version: 6.00 Build 0)  -->
<!DOCTYPE svg PUBLIC "-//W3C//DTD SVG 1.1//EN" "http://www.w3.org/Graphics/SVG/1.1/DTD/svg11.dtd" >
<svg version="1.1" id="Layer_5_copy_3"
	 xmlns="http://www.w3.org/2000/svg" xmlns:xlink="http://www.w3.org/1999/xlink" x="0px" y="0px" width="300px" height="300px"
	 viewBox="0 0 300 300" enable-background="new 0 0 300 300" xml:space="preserve">
<switch>
	<g>
		<g>
			<g>
				<g>
					<linearGradient id="SVGID_1_" gradientUnits="userSpaceOnUse" x1="150" y1="300" x2="150" y2="0">
						<stop  offset="0" style="stop-color:#010101"/>
						<stop  offset="0.109" style="stop-color:#122E32"/>
						<stop  offset="0.2228" style="stop-color:#004B57"/>
						<stop  offset="0.3408" style="stop-color:#00677C"/>
						<stop  offset="0.461" style="stop-color:#007F9F"/>
						<stop  offset="0.5843" style="stop-color:#0091BD"/>
						<stop  offset="0.7119" style="stop-color:#009FD5"/>
						<stop  offset="0.8465" style="stop-color:#00A8E6"/>
						<stop  offset="1" style="stop-color:#00AEEF"/>
					</linearGradient>
					<path fill="url(#SVGID_1_)" d="M262.509,0H37.486C16.861,0,0,16.868,0,37.497v225.014C0,283.142,16.861,300,37.486,300h225.023
						C283.14,300,300,283.142,300,262.511V37.497C300,16.868,283.14,0,262.509,0z"/>
				</g>
				<g>
					<g>
						<linearGradient id="SVGID_2_" gradientUnits="userSpaceOnUse" x1="150" y1="300" x2="150" y2="0">
							<stop  offset="0" style="stop-color:#010101;stop-opacity:0"/>
							<stop  offset="0.0984" style="stop-color:#192228;stop-opacity:0"/>
							<stop  offset="0.2136" style="stop-color:#233543;stop-opacity:0"/>
							<stop  offset="0.3329" style="stop-color:#27455C;stop-opacity:0"/>
							<stop  offset="0.4546" style="stop-color:#255271;stop-opacity:0"/>
							<stop  offset="0.5793" style="stop-color:#1F5B83;stop-opacity:0"/>
							<stop  offset="0.7085" style="stop-color:#16628F;stop-opacity:0"/>
							<stop  offset="0.8447" style="stop-color:#0A6597;stop-opacity:0"/>
							<stop  offset="1" style="stop-color:#046799;stop-opacity:0"/>
						</linearGradient>
						<path fill="url(#SVGID_2_)" d="M262.509,0H37.486C16.861,0,0,16.868,0,37.497v225.014C0,283.142,16.861,300,37.486,300
							h225.023C283.14,300,300,283.142,300,262.511V37.497C300,16.868,283.14,0,262.509,0z"/>
					</g>
					<defs>
						<filter id="Adobe_OpacityMaskFilter" filterUnits="userSpaceOnUse" x="0" y="0" width="300" height="300">
							
								<feColorMatrix  type="matrix" values="-1 0 0 0 1  0 -1 0 0 1  0 0 -1 0 1  0 0 0 1 0" color-interpolation-filters="sRGB" result="source"/>
						</filter>
					</defs>
					<mask maskUnits="userSpaceOnUse" x="0" y="0" width="300" height="300" id="SVGID_3_">
						<g filter="url(#Adobe_OpacityMaskFilter)">
							
						</g>
					</mask>
					<g opacity="0.6" mask="url(#SVGID_3_)">
						<path fill="#010101" d="M262.509,0H37.486C16.861,0,0,16.868,0,37.497v225.014C0,283.142,16.861,300,37.486,300h225.023
							C283.14,300,300,283.142,300,262.511V37.497C300,16.868,283.14,0,262.509,0z"/>
					</g>
				</g>
				<linearGradient id="SVGID_4_" gradientUnits="userSpaceOnUse" x1="149.9971" y1="257.9561" x2="149.9971" y2="6.0703">
					<stop  offset="0" style="stop-color:#FFFFFF;stop-opacity:0.1"/>
					<stop  offset="1" style="stop-color:#FFFFFF;stop-opacity:0.2"/>
				</linearGradient>
				<path fill="url(#SVGID_4_)" d="M257.958,6.07H42.045c-19.795,0-35.983,16.181-35.983,35.98v215.905
					C30.45,43.084,293.932,42.051,293.932,42.051C293.932,22.251,277.756,6.07,257.958,6.07z"/>
				<g>
					
					<g>
						<text transform="matrix(1 0 0 1 76.7051 265.7002)" fill="#FFFFFF" font-family="'Calibri-Bold'" font-size="43.057">Package</text>
					</g>
				</g>
			</g>
			<g>
				
				<g>
					<g>
						<g>
							<path fill="#FFFFFF" d="M258.256,98.78c-0.004-0.042-0.006-0.088-0.016-0.133c-0.007-0.062-0.016-0.124-0.03-0.186
								c-0.006-0.039-0.016-0.078-0.026-0.113c-0.003-0.018-0.006-0.029-0.009-0.044c-0.011-0.036-0.02-0.075-0.032-0.11
								c-0.014-0.049-0.029-0.098-0.048-0.146c-0.023-0.059-0.048-0.121-0.072-0.176c-0.056-0.124-0.121-0.248-0.195-0.362
								c-0.03-0.042-0.059-0.085-0.091-0.126c-0.079-0.111-0.167-0.216-0.265-0.313c-0.016-0.021-0.035-0.039-0.055-0.056
								c-0.006-0.01-0.016-0.016-0.023-0.02c-0.042-0.043-0.085-0.082-0.131-0.117c-0.082-0.068-0.166-0.131-0.251-0.186
								c-0.074-0.049-0.157-0.095-0.234-0.137c-0.039-0.02-0.078-0.039-0.117-0.059l-16.807-7.778v6.103l3.547,1.643l-4.85,0.092
								l-2.51,0.045l-2.506,0.047l-7.745,0.146l-2.505,0.045l-2.506,0.045l-7.748,0.147l-5.011,0.092l-7.745,0.143l-2.506,0.049
								l-2.508,0.046l-7.745,0.143l-2.507,0.05l-2.506,0.046l-66.651,1.24l-2.505,0.047l-2.505,0.049l-5.847,0.107h-0.003
								l-1.896-1.102v-0.004l-2.508-1.457l-2.506-1.452l-7.745-4.497l-2.505-1.453v-0.003l-2.506-1.453l-7.748-4.5l-2.506-1.453
								l-2.506-1.456l-7.745-4.497l-2.505-1.453l-2.509-1.456l-5.008-2.91h3.705v-5.539H44.504c-0.079,0-0.157,0.003-0.231,0.01
								c-0.144,0.01-0.291,0.033-0.43,0.07c-0.089,0.021-0.172,0.043-0.254,0.076c-0.065,0.021-0.13,0.045-0.192,0.074
								c-0.068,0.029-0.133,0.06-0.195,0.096c-0.003,0-0.01,0.003-0.013,0.006c-0.023,0.01-0.042,0.023-0.065,0.036
								c-0.037,0.022-0.072,0.042-0.108,0.067c-0.075,0.047-0.146,0.096-0.215,0.15c-0.052,0.039-0.101,0.082-0.149,0.127
								c-0.052,0.046-0.102,0.096-0.15,0.146c-0.04,0.04-0.072,0.078-0.104,0.117c-0.033,0.033-0.062,0.069-0.088,0.108
								c-0.036,0.042-0.068,0.087-0.098,0.134c-0.082,0.123-0.156,0.256-0.221,0.395c-0.029,0.068-0.059,0.133-0.084,0.204
								c-0.003,0.007-0.003,0.01-0.007,0.017c-0.023,0.068-0.046,0.141-0.065,0.212c-0.033,0.12-0.059,0.241-0.073,0.365
								c-0.019,0.117-0.025,0.237-0.025,0.358v97.354c0,0.906,0.443,1.753,1.186,2.271l59.766,41.736
								c0.026,0.02,0.052,0.036,0.079,0.052c0.01,0.007,0.019,0.014,0.033,0.023c0.068,0.042,0.14,0.081,0.215,0.12
								s0.154,0.074,0.235,0.107c0.068,0.027,0.137,0.049,0.208,0.071c0.046,0.015,0.089,0.026,0.134,0.036
								c0.029,0.01,0.062,0.017,0.091,0.023c0.045,0.014,0.091,0.02,0.137,0.026c0.065,0.013,0.13,0.019,0.195,0.026
								c0.084,0.009,0.172,0.013,0.257,0.013c0.052,0,0.104,0,0.156-0.004h0.023l151.204-8.442c1.466-0.084,2.613-1.297,2.613-2.767
								V99.009C258.266,98.935,258.261,98.855,258.256,98.78z M101.5,200.905l-54.227-37.869V71.935l12.528,7.273l2.509,1.456
								l2.505,1.457l7.745,4.496l2.506,1.453l2.506,1.456l7.748,4.497l2.506,1.456l2.505,1.453l7.745,4.497l2.506,1.456l0.916,0.532
								V200.905z M252.727,195.153l-145.688,8.133v-98.744l3.8-0.072l2.505-0.045l2.505-0.046l66.651-1.241l2.506-0.046l2.507-0.049
								l7.745-0.144l2.508-0.045l2.506-0.046l7.745-0.146l5.011-0.092l7.748-0.146l2.506-0.046l2.505-0.046l7.745-0.144l2.506-0.049
								l2.51-0.045l14.176-0.264V195.153z"/>
						</g>
						<g>
							<g>
								<g>
									<path fill="#FFFFFF" d="M225.672,160.069l-91.576,4.602c-2.179,0.109-3.954-1.594-3.954-3.793v-29.566
										c0-2.201,1.775-4.049,3.954-4.121l91.576-3.016c2.178-0.07,3.951,1.578,3.951,3.678v28.21
										C229.624,158.16,227.851,159.96,225.672,160.069z M134.097,128.64c-1.386,0.046-2.516,1.223-2.516,2.622v29.546
										c0,1.4,1.129,2.482,2.516,2.414l91.576-4.541c1.386-0.068,2.516-1.211,2.516-2.549v-28.229
										c0-1.336-1.129-2.388-2.516-2.341L134.097,128.64z"/>
									<path fill="#FFFFFF" d="M133.898,165.001c-2.288,0-4.08-1.811-4.08-4.123v-29.566c0-2.374,1.915-4.369,4.268-4.446
										l91.576-3.016c0.048-0.002,0.098-0.003,0.146-0.003c2.322,0,4.139,1.76,4.139,4.006v28.21c0,2.271-1.91,4.214-4.26,4.333
										l-91.575,4.6C134.04,164.999,133.969,165.001,133.898,165.001z M225.809,124.499c-0.042,0-0.083,0-0.126,0.002
										l-91.576,3.016c-2.005,0.066-3.637,1.768-3.637,3.795v29.566c0,2.008,1.606,3.572,3.61,3.467l91.575-4.602
										c2.009-0.101,3.642-1.752,3.642-3.681v-28.21C229.297,125.972,227.765,124.499,225.809,124.499z M133.972,163.55
										L133.972,163.55c-1.524,0-2.718-1.204-2.718-2.742v-29.546c0-1.573,1.271-2.896,2.832-2.948l91.575-3.076
										c1.575-0.064,2.852,1.162,2.852,2.666v28.229c0,1.508-1.267,2.797-2.826,2.874l-91.575,4.54
										C134.065,163.549,134.019,163.55,133.972,163.55z M225.76,125.887l-0.076,0.001l-91.576,3.077
										c-1.214,0.04-2.201,1.071-2.201,2.297v29.546c0,1.173,0.907,2.09,2.065,2.09h0c0.036,0,0.072,0,0.108-0.002l91.575-4.541
										c1.217-0.061,2.207-1.057,2.207-2.223v-28.229C227.862,126.772,226.939,125.887,225.76,125.887z"/>
								</g>
							</g>
							<g>
								<g>
									<path fill="#FFFFFF" d="M166.931,157.495c-0.406,0.019-0.74-0.295-0.74-0.694v-17.634c0-0.404-0.331-0.716-0.74-0.699
										l-5.838,0.226c-0.408,0.017-0.743-0.302-0.743-0.704v-5.387c0-0.402,0.335-0.743,0.743-0.758l21.326-0.757
										c0.406-0.015,0.74,0.3,0.74,0.697v5.329c0,0.399-0.334,0.738-0.74,0.754l-5.838,0.225
										c-0.408,0.018-0.739,0.353-0.739,0.755v17.566c0,0.397-0.337,0.743-0.743,0.763L166.931,157.495z"/>
								</g>
								<g>
									<path fill="#FFFFFF" d="M183.444,131.72c0-0.398,0.333-0.735,0.74-0.749l6.391-0.228c0.408-0.014,0.741,0.298,0.741,0.695
										v24.171c0,0.396-0.333,0.737-0.741,0.757l-6.391,0.304c-0.407,0.019-0.74-0.29-0.74-0.688V131.72z"/>
								</g>
								<g>
									<path fill="#FFFFFF" d="M205.111,143.36l-8.283,12.711l-1.64,0.077c-0.411,0.021-0.56-0.245-0.34-0.589l7.476-11.479
										c0.221-0.342,0.221-0.883,0-1.201l-8.03-11.66c-0.22-0.328-0.07-0.604,0.339-0.619l1.635-0.058L205.111,143.36z"/>
								</g>
								<g>
									<path fill="#FFFFFF" d="M207.396,146.669l5.99,8.613l-1.633,0.078c-0.411,0.02-0.924-0.227-1.146-0.548l-2.807-4.03
										c-0.221-0.322-0.587-0.306-0.808,0.037l-2.806,4.298c-0.222,0.343-0.735,0.639-1.146,0.657l-1.636,0.079L207.396,146.669z"
										/>
								</g>
								<g>
									<path fill="#FFFFFF" d="M207.396,139.861l-6.544-9.481l1.635-0.059c0.41-0.014,0.924,0.237,1.146,0.564l3.359,4.866
										c0.221,0.318,0.587,0.304,0.808-0.03l3.36-5.106c0.222-0.339,0.736-0.628,1.146-0.642l1.634-0.059L207.396,139.861z"/>
								</g>
								<g>
									<path fill="#FFFFFF" d="M212.468,142.458c-0.214,0.335-0.214,0.875,0,1.197l7.476,10.715
										c0.222,0.32,0.072,0.596-0.338,0.615l-1.636,0.078l-8.282-11.893l8.836-13.418l1.635-0.059
										c0.41-0.014,0.56,0.248,0.337,0.588L212.468,142.458z"/>
								</g>
								<g>
									<polygon fill="#FFFFFF" points="222.023,131.667 222.023,129.839 221.481,129.856 221.481,129.649 222.778,129.603 
										222.778,129.812 222.268,129.829 222.268,131.657 									"/>
								</g>
								<g>
									<polygon fill="#FFFFFF" points="224.418,131.579 224.418,129.659 223.896,131.599 223.67,131.606 223.172,129.704 
										223.172,131.624 222.941,131.633 222.941,129.597 223.341,129.583 223.79,131.301 224.256,129.55 224.65,129.536 
										224.65,131.57 									"/>
								</g>
								<g>
									<path fill="#FFFFFF" d="M158.566,149.679c0,2.871-1.015,5.127-3.049,6.766c-2.035,1.643-4.95,2.555-8.741,2.736
										c-3.496,0.168-6.267-0.477-8.312-1.936c-1.823-1.303-2.935-3.143-3.331-5.523v-0.002c-0.003-0.023-0.008-0.047-0.011-0.069
										c-0.002-0.028-0.004-0.058-0.004-0.086c0-0.407,0.323-0.751,0.727-0.782l6.856-0.3c0.311-0.01,0.578,0.171,0.686,0.44
										c0.007,0.023,0.016,0.045,0.021,0.063c0.243,0.664,0.6,1.151,1.074,1.462c0.6,0.389,1.487,0.554,2.668,0.5
										c0.991-0.045,1.769-0.248,2.338-0.609c0.563-0.361,0.847-0.838,0.847-1.431c0-0.944-1.187-1.662-3.56-2.15
										c-0.48-0.097-0.843-0.169-1.094-0.218c-1.942-0.415-3.489-0.804-4.641-1.161c-1.153-0.36-1.99-0.71-2.513-1.044
										c-1.016-0.684-1.777-1.521-2.283-2.51c-0.507-0.991-0.759-2.134-0.759-3.43c0-2.608,0.984-4.693,2.954-6.248
										c1.967-1.557,4.672-2.392,8.12-2.514c3.389-0.118,6.055,0.492,7.999,1.833c1.717,1.178,2.773,2.857,3.169,5.032
										c0.002,0.018,0.007,0.035,0.011,0.055c0.004,0.033,0.006,0.07,0.006,0.105c0,0.395-0.313,0.73-0.708,0.77l-6.701,0.262
										c-0.282-0.014-0.521-0.186-0.627-0.429c-0.011-0.036-0.023-0.069-0.036-0.104l0,0c-0.177-0.487-0.471-0.863-0.884-1.129
										c-0.553-0.357-1.345-0.518-2.37-0.479c-0.907,0.034-1.579,0.211-2.022,0.521c-0.444,0.314-0.662,0.772-0.662,1.376
										c0,0.865,1.157,1.546,3.469,2.032c0.203,0.054,0.359,0.088,0.466,0.105c0.333,0.07,0.842,0.174,1.521,0.312
										c3.065,0.646,5.071,1.259,6.013,1.847c1.165,0.719,2.02,1.554,2.558,2.509
										C158.297,147.208,158.566,148.353,158.566,149.679z"/>
								</g>
							</g>
						</g>
						<path fill="#FFFFFF" d="M62.262,56.81l76.143-1.418c-0.465,0.643-0.733,1.425-0.733,2.242v2.783l-72.855,1.358v12.347
							l-2.505-1.454v-0.003l-2.509-1.457V59.315C59.802,57.946,60.897,56.833,62.262,56.81z"/>
						<path fill="#FFFFFF" d="M187.513,57.03v3.213h-0.023l-2.509,0.05l-2.48,0.046v-0.754l-0.567,0.01
							c-0.03,0-0.058,0.004-0.088,0.004c-0.639,0-1.254-0.27-1.712-0.721c-0.48-0.472-0.751-1.117-0.751-1.789V52.75l-27.416,0.508
							v0.372h-0.023l-2.506,0.045l-2.486,0.049v-2.926c0-1.365,1.095-2.479,2.46-2.506l32.428-0.603h0.036
							c0.658,0,1.297,0.258,1.77,0.717c0.478,0.472,0.748,1.117,0.748,1.789v4.34l0.567-0.009h0.027c0.657,0,1.3,0.25,1.775,0.717
							C187.243,55.715,187.513,56.356,187.513,57.03z"/>
						<path fill="#FFFFFF" d="M130.096,62.763c-0.264,0.525-0.404,1.104-0.404,1.703v2.95l-4.239,0.077
							c-0.45,0.011-0.883,0.095-1.287,0.248l-30.121,0.561l-16.471,0.307v12.92l-2.506-1.454v-0.003l-2.506-1.453V66.147
							c0-1.364,1.095-2.479,2.46-2.505l47.309-0.88H130.096z"/>
						<path fill="#FFFFFF" d="M124.524,69.003c-0.026,0.013-0.052,0.022-0.079,0.038l0.108-0.003
							C124.546,69.025,124.537,69.012,124.524,69.003z"/>
						<path fill="#FFFFFF" d="M200.273,63.864v3.216h-0.023l-0.891,0.017l-1.619,0.032l-2.482,0.046v-0.756l-0.153,0.002
							l-7.592,0.141l-2.507,0.049l-2.506,0.046l-8.546,0.16h-0.089c-0.635,0-1.251-0.267-1.713-0.717
							c-0.48-0.473-0.75-1.118-0.75-1.788v-4.729l-20.899,0.391l-6.517,0.121v0.367h-0.023l-2.505,0.046l-1.187,0.022l-0.664,0.014
							l-0.633,0.014v-2.924c0-1.01,0.6-1.883,1.467-2.281c0.195-0.088,0.403-0.152,0.622-0.188c0.12-0.023,0.244-0.033,0.372-0.037
							l0.287-0.006l3.927-0.072l0.651-0.01l0.652-0.013l2.508-0.049l2.507-0.046l0.651-0.013l0.651-0.01l20.593-0.384h0.027
							c0.66,0,1.303,0.25,1.775,0.717c0.479,0.469,0.75,1.113,0.75,1.787v4.726l4.783-0.092l0.652-0.009l0.651-0.014l2.506-0.045
							l2.507-0.049l0.65-0.014l0.652-0.01l8.901-0.166h0.049c0.655,0,1.283,0.258,1.753,0.717
							C200.001,62.548,200.273,63.192,200.273,63.864z"/>
						<path fill="#FFFFFF" d="M213.029,70.7v3.213h-0.022l-2.509,0.049l-2.479,0.045v-0.752l-7.745,0.143l-2.506,0.05l-0.647,0.01
							l-1.861,0.036l-7.745,0.143l-2.507,0.045l-2.506,0.05l-16.523,0.306h-0.06c-0.651,0-1.276-0.26-1.742-0.717
							c-0.483-0.472-0.753-1.117-0.753-1.788v-5.112l-20.29,0.375l-7.126,0.133v0.372h-0.023l-2.505,0.045l-1.18,0.024l-1.303,0.025
							v-2.928c0-0.654,0.253-1.257,0.668-1.703c0.059-0.062,0.12-0.123,0.186-0.176c0.097-0.088,0.206-0.166,0.316-0.238
							c0.187-0.117,0.388-0.211,0.603-0.276c0.218-0.068,0.45-0.104,0.687-0.11l4.217-0.079l0.652-0.01l0.651-0.013l2.506-0.049
							l2.506-0.046l0.652-0.013l0.651-0.01l20.593-0.385h0.046c0.658,0,1.287,0.258,1.756,0.717
							c0.206,0.201,0.372,0.434,0.492,0.688c0.173,0.339,0.261,0.717,0.261,1.102v5.112l14.063-0.261l2.506-0.049l1.69-0.029
							l0.816-0.017l6.442-0.12l0.65-0.01l0.652-0.013l2.508-0.046l1.618-0.033l0.889-0.016l0.651-0.014l0.651-0.01l8.902-0.166h0.04
							c0.657,0,1.292,0.254,1.762,0.717C212.759,69.384,213.029,70.025,213.029,70.7z"/>
						<path fill="#FFFFFF" d="M122.002,69.843c-0.192,0.459-0.29,0.952-0.29,1.46v2.946l-4.243,0.081
							c-0.749,0.013-1.46,0.241-2.053,0.645l-25.083,0.47v13.493l-2.505-1.456l-2.506-1.453V72.984c0-1.368,1.092-2.483,2.457-2.506
							L122.002,69.843z"/>
						<path fill="#FFFFFF" d="M124.524,69.003c-0.026,0.013-0.052,0.022-0.079,0.038l0.108-0.003
							C124.546,69.025,124.537,69.012,124.524,69.003z"/>
						<path fill="#FFFFFF" d="M124.553,69.038l-0.108,0.003c0.026-0.016,0.052-0.025,0.079-0.038
							C124.537,69.012,124.546,69.025,124.553,69.038z"/>
						<path fill="#FFFFFF" d="M225.789,77.533v3.216h-0.022l-2.51,0.049l-2.48,0.046v-0.757l-7.748,0.145l-1.222,0.021l-1.284,0.023
							l-2.505,0.049l-7.745,0.144l-2.506,0.046l-2.508,0.048l-7.745,0.145l-5.013,0.091l-24.502,0.457h-0.049
							c-0.652,0-1.288-0.258-1.753-0.718c-0.479-0.47-0.753-1.114-0.753-1.789v-5.497l-19.929,0.372l-7.484,0.14v0.372h-0.025
							l-2.505,0.046l-1.18,0.022l-0.651,0.01l-0.652,0.013v-2.923c0-0.554,0.182-1.071,0.493-1.489
							c0.13-0.172,0.283-0.332,0.453-0.469c0.15-0.121,0.312-0.222,0.485-0.304l0.108-0.003c-0.007-0.013-0.017-0.026-0.029-0.035
							c0.293-0.127,0.612-0.199,0.952-0.206l4.216-0.077l0.652-0.01l0.652-0.014l0.746-0.014l1.759-0.035l2.506-0.046l0.651-0.013
							l0.652-0.01l14.81-0.277h6.556c0.385,0.117,0.739,0.322,1.033,0.609c0.479,0.47,0.749,1.114,0.749,1.789v5.497l22.043-0.411
							l2.506-0.045l2.507-0.049l7.745-0.144l2.508-0.046l2.506-0.049l1.118-0.02l5.324-0.102l0.651-0.01l0.652-0.013l2.505-0.046
							l2.506-0.049l0.651-0.014l0.391-0.006l0.261-0.002l8.902-0.167h0.012c0.669,0,1.313,0.251,1.794,0.716
							C225.52,76.216,225.789,76.861,225.789,77.533z"/>
						<path fill="#FFFFFF" d="M113.734,78.14v3.939l-10.642,0.198v14.066l-2.508-1.457l-2.506-1.453V79.817
							c0-1.365,1.095-2.48,2.461-2.506l13.352-0.248C113.787,77.409,113.734,77.774,113.734,78.14z"/>
						<path fill="#FFFFFF" d="M238.55,84.368v10.594l-2.51,0.046l-2.506,0.046v-8.13l-7.027,0.13l-0.718,0.014l-2.505,0.049
							l-2.506,0.045l-7.748,0.145l-2.506,0.045l-2.505,0.049l-7.745,0.144l-2.506,0.045l-2.508,0.05l-7.745,0.144l-5.013,0.091
							l-32.483,0.605h-0.049c-0.651,0-1.284-0.256-1.753-0.72c-0.479-0.47-0.75-1.114-0.75-1.789v-5.882l-19.693,0.369l-7.723,0.143
							v5.977c0,1.365-1.095,2.479-2.46,2.506l-1.74,0.032v8.133l-2.505,0.046l-2.505,0.045V86.653c0-1.369,1.095-2.482,2.459-2.506
							l1.74-0.032V78.14c0-0.395,0.091-0.77,0.258-1.102c0.094-0.199,0.215-0.383,0.358-0.545c0.065-0.078,0.14-0.152,0.215-0.221
							c0.087-0.078,0.182-0.154,0.28-0.219c0.384-0.258,0.847-0.41,1.345-0.42l4.217-0.078l1.303-0.026l1.115-0.02l1.391-0.026
							l2.508-0.045l0.652-0.014l0.651-0.01l20.593-0.388h0.014c0.664,0,1.312,0.251,1.789,0.716c0.479,0.473,0.75,1.118,0.75,1.79
							v5.884L182.5,82.86l2.506-0.049l2.507-0.046l7.745-0.144l2.508-0.049l2.506-0.045l7.745-0.145l2.505-0.048l2.506-0.046
							l3.056-0.055l3.388-0.065l0.652-0.01l0.651-0.013l2.506-0.047l2.505-0.049l0.651-0.012l0.651-0.011l1.675-0.032l7.228-0.134
							h0.039c0.654,0,1.293,0.254,1.762,0.718C238.278,83.053,238.55,83.694,238.55,84.368z"/>
					</g>
				</g>
			</g>
		</g>
	</g>
</switch>
</svg>
