<?xml version="1.0" encoding="utf-8"?>
<!-- Generator: Adobe Illustrator 16.0.4, SVG Export Plug-In . SVG Version: 6.00 Build 0)  -->
<!DOCTYPE svg PUBLIC "-//W3C//DTD SVG 1.1//EN" "http://www.w3.org/Graphics/SVG/1.1/DTD/svg11.dtd">
<svg version="1.1" id="Layer_5_copy_3"
	 xmlns="http://www.w3.org/2000/svg" xmlns:xlink="http://www.w3.org/1999/xlink" x="0px" y="0px" width="300px" height="300px"
	 viewBox="0 0 300 300" enable-background="new 0 0 300 300" xml:space="preserve">
<switch>
	<g >
		<g>
			<g>
				<linearGradient id="SVGID_1_" gradientUnits="userSpaceOnUse" x1="150" y1="300.002" x2="150" y2="-0.002">
					<stop  offset="0" style="stop-color:#010101"/>
					<stop  offset="0.1031" style="stop-color:#15141F"/>
					<stop  offset="0.2375" style="stop-color:#1E1D35"/>
					<stop  offset="0.3765" style="stop-color:#232145"/>
					<stop  offset="0.5191" style="stop-color:#252251"/>
					<stop  offset="0.6667" style="stop-color:#26225A"/>
					<stop  offset="0.8225" style="stop-color:#262260"/>
					<stop  offset="1" style="stop-color:#262262"/>
				</linearGradient>
				<path fill="url(#SVGID_1_)" d="M262.51-0.002H37.485C16.862-0.002,0,16.863,0,37.495v225.018
					c0,20.633,16.862,37.489,37.485,37.489H262.51c20.63,0,37.49-16.856,37.49-37.489V37.495C300,16.863,283.14-0.002,262.51-0.002z
					"/>
			</g>
			<g>
				<g>
					<linearGradient id="SVGID_2_" gradientUnits="userSpaceOnUse" x1="150" y1="300.002" x2="150" y2="-0.002">
						<stop  offset="0" style="stop-color:#010101;stop-opacity:0"/>
						<stop  offset="0.0984" style="stop-color:#192228;stop-opacity:0"/>
						<stop  offset="0.2136" style="stop-color:#233543;stop-opacity:0"/>
						<stop  offset="0.3329" style="stop-color:#27455C;stop-opacity:0"/>
						<stop  offset="0.4546" style="stop-color:#255271;stop-opacity:0"/>
						<stop  offset="0.5793" style="stop-color:#1F5B83;stop-opacity:0"/>
						<stop  offset="0.7085" style="stop-color:#16628F;stop-opacity:0"/>
						<stop  offset="0.8447" style="stop-color:#0A6597;stop-opacity:0"/>
						<stop  offset="1" style="stop-color:#046799;stop-opacity:0"/>
					</linearGradient>
					<path fill="url(#SVGID_2_)" d="M262.51-0.002H37.485C16.862-0.002,0,16.863,0,37.495v225.018
						c0,20.633,16.862,37.489,37.485,37.489H262.51c20.63,0,37.49-16.856,37.49-37.489V37.495C300,16.863,283.14-0.002,262.51-0.002
						z"/>
				</g>
				<defs>
					<filter id="Adobe_OpacityMaskFilter" filterUnits="userSpaceOnUse" x="0" y="-0.002" width="300" height="300.004">
						
							<feColorMatrix  type="matrix" values="-1 0 0 0 1  0 -1 0 0 1  0 0 -1 0 1  0 0 0 1 0" color-interpolation-filters="sRGB" result="source"/>
					</filter>
				</defs>
				<mask maskUnits="userSpaceOnUse" x="0" y="-0.002" width="300" height="300.004" id="SVGID_3_">
					<g filter="url(#Adobe_OpacityMaskFilter)">
						
					</g>
				</mask>
				<g opacity="0.6" mask="url(#SVGID_3_)">
					<path fill="#010101" d="M262.51-0.002H37.485C16.862-0.002,0,16.863,0,37.495v225.018c0,20.633,16.862,37.489,37.485,37.489
						H262.51c20.63,0,37.49-16.856,37.49-37.489V37.495C300,16.863,283.14-0.002,262.51-0.002z"/>
				</g>
			</g>
			<linearGradient id="SVGID_4_" gradientUnits="userSpaceOnUse" x1="149.9976" y1="257.96" x2="149.9975" y2="6.0664">
				<stop  offset="0" style="stop-color:#FFFFFF;stop-opacity:0.1"/>
				<stop  offset="1" style="stop-color:#FFFFFF;stop-opacity:0.2"/>
			</linearGradient>
			<path fill="url(#SVGID_4_)" d="M257.958,6.066H42.046c-19.796,0-35.981,16.182-35.981,35.979V257.96
				C30.449,43.084,293.931,42.046,293.931,42.046C293.931,22.248,277.757,6.066,257.958,6.066z"/>
			<g>
				
				<g>
					<text transform="matrix(1 0 0 1 88.6035 265.7031)" fill="#FFFFFF" font-family="'Calibri-Bold'" font-size="43.0575">Report</text>
				</g>
			</g>
		</g>
		<g>
			
			<g>
				<g>
					<g>
						<path fill="#FFFFFF" d="M246.965,168.412l-144.601,48.769c-7.133,2.405-14.894-1.439-17.299-8.574L43.744,86.087
							l170.474-57.494l41.321,122.521C257.945,158.247,254.098,166.008,246.965,168.412z M51.158,89.761l39.451,116.976
							c1.375,4.077,5.809,6.274,9.886,4.9l144.601-48.77c4.077-1.373,6.273-5.808,4.899-9.884L210.544,36.007L51.158,89.761z"/>
					</g>
					<g>
						
							<rect x="65.87" y="90.833" transform="matrix(0.9476 -0.3196 0.3196 0.9476 -22.4278 49.8573)" fill="#FFFFFF" width="149.68" height="4.875"/>
					</g>
					<g>
						
							<rect x="129.285" y="57.545" transform="matrix(0.9476 -0.3196 0.3196 0.9476 -12.2058 57.3898)" fill="#FFFFFF" width="78.987" height="16.687"/>
					</g>
					<g>
						
							<rect x="62.717" y="82.681" transform="matrix(0.9476 -0.3196 0.3196 0.9476 -24.1456 34.8911)" fill="#FFFFFF" width="63.067" height="16.687"/>
					</g>
					<g>
						<g>
							
								<rect x="123.602" y="109.637" transform="matrix(0.9476 -0.3196 0.3196 0.9476 -27.908 52.7652)" fill="#FFFFFF" width="46.462" height="3.575"/>
						</g>
						<g>
							
								<rect x="126.507" y="118.25" transform="matrix(0.9476 -0.3196 0.3196 0.9476 -30.5092 54.1483)" fill="#FFFFFF" width="46.463" height="3.574"/>
						</g>
						<g>
							
								<rect x="129.412" y="126.863" transform="matrix(0.9476 -0.3196 0.3196 0.9476 -33.1096 55.5283)" fill="#FFFFFF" width="46.463" height="3.576"/>
						</g>
						<g>
							
								<rect x="132.317" y="135.477" transform="matrix(0.9476 -0.3196 0.3196 0.9476 -35.7083 56.904)" fill="#FFFFFF" width="46.463" height="3.575"/>
						</g>
						<g>
							
								<rect x="135.221" y="144.09" transform="matrix(0.9476 -0.3196 0.3196 0.9476 -38.3081 58.2838)" fill="#FFFFFF" width="46.463" height="3.575"/>
						</g>
						<g>
							
								<rect x="138.126" y="152.704" transform="matrix(0.9476 -0.3196 0.3196 0.9476 -40.9106 59.6683)" fill="#FFFFFF" width="46.463" height="3.575"/>
						</g>
						<g>
							
								<rect x="141.031" y="161.316" transform="matrix(0.9476 -0.3196 0.3196 0.9476 -43.5104 61.0477)" fill="#FFFFFF" width="46.463" height="3.576"/>
						</g>
						<g>
							
								<rect x="143.936" y="169.93" transform="matrix(0.9476 -0.3196 0.3196 0.9476 -46.1112 62.4284)" fill="#FFFFFF" width="46.463" height="3.575"/>
						</g>
						<g>
							
								<rect x="146.841" y="178.545" transform="matrix(0.9476 -0.3196 0.3196 0.9476 -48.7099 63.8049)" fill="#FFFFFF" width="46.462" height="3.574"/>
						</g>
					</g>
					<g>
						<g>
							
								<rect x="119.232" y="92.445" transform="matrix(0.9476 -0.3196 0.3196 0.9476 -21.2897 58.7114)" fill="#FFFFFF" width="98.07" height="3.574"/>
						</g>
						<g>
							
								<rect x="172.504" y="93.145" transform="matrix(0.9476 -0.3196 0.3196 0.9476 -20.0739 67.5315)" fill="#FFFFFF" width="46.463" height="3.574"/>
						</g>
						<g>
							
								<rect x="175.409" y="101.758" transform="matrix(0.9476 -0.3196 0.3196 0.9476 -22.6737 68.9077)" fill="#FFFFFF" width="46.462" height="3.575"/>
						</g>
						<g>
							
								<rect x="178.314" y="110.372" transform="matrix(0.9476 -0.3195 0.3195 0.9476 -25.2727 70.2812)" fill="#FFFFFF" width="46.463" height="3.575"/>
						</g>
						<g>
							
								<rect x="181.219" y="118.984" transform="matrix(0.9476 -0.3195 0.3195 0.9476 -27.8727 71.6616)" fill="#FFFFFF" width="46.463" height="3.576"/>
						</g>
						<g>
							
								<rect x="227.635" y="129.567" transform="matrix(0.9475 -0.3197 0.3197 0.9475 -34.2558 81.9003)" fill="#FFFFFF" width="9.427" height="31.46"/>
						</g>
						<g>
							
								<rect x="217.126" y="140.985" transform="matrix(0.9476 -0.3195 0.3195 0.9476 -37.2197 78.8921)" fill="#FFFFFF" width="9.426" height="23.799"/>
						</g>
						<g>
							
								<rect x="206.098" y="149.239" transform="matrix(0.9476 -0.3195 0.3195 0.9476 -39.7312 75.6898)" fill="#FFFFFF" width="9.426" height="19.387"/>
						</g>
						<g>
							
								<rect x="193.399" y="147.315" transform="matrix(0.9476 -0.3196 0.3196 0.9476 -40.7542 71.7091)" fill="#FFFFFF" width="9.427" height="25.425"/>
						</g>
					</g>
					<g>
						<g>
							
								<rect x="92.129" y="177.809" transform="matrix(0.9476 -0.3196 0.3196 0.9476 -51.3435 46.2817)" fill="#FFFFFF" width="46.463" height="3.575"/>
						</g>
						<g>
							
								<rect x="95.033" y="186.421" transform="matrix(0.9476 -0.3196 0.3196 0.9476 -53.9463 47.665)" fill="#FFFFFF" width="46.463" height="3.577"/>
						</g>
						<g>
							
								<rect x="97.938" y="195.036" transform="matrix(0.9476 -0.3196 0.3196 0.9476 -56.5433 49.041)" fill="#FFFFFF" width="46.463" height="3.575"/>
						</g>
						<g>
							<path fill="#FFFFFF" d="M104.706,148.005c-4.966,1.675-7.633,7.058-5.958,12.022c1.674,4.966,7.057,7.634,12.022,5.96
								c4.966-1.675,7.633-7.058,5.959-12.023C115.054,148.999,109.672,146.331,104.706,148.005z M111.66,161.409l-4.37,1.474
								l-1.222-6.754c-0.773-0.19-1.437-0.763-1.71-1.574c-0.428-1.269,0.254-2.643,1.522-3.069
								c1.267-0.426,2.641,0.253,3.069,1.521c0.273,0.811,0.091,1.668-0.409,2.289L111.66,161.409z M104.706,148.005
								c-4.966,1.675-7.633,7.058-5.958,12.022c1.674,4.966,7.057,7.634,12.022,5.96c4.966-1.675,7.633-7.058,5.959-12.023
								C115.054,148.999,109.672,146.331,104.706,148.005z M111.66,161.409l-4.37,1.474l-1.222-6.754
								c-0.773-0.19-1.437-0.763-1.71-1.574c-0.428-1.269,0.254-2.643,1.522-3.069c1.267-0.426,2.641,0.253,3.069,1.521
								c0.273,0.811,0.091,1.668-0.409,2.289L111.66,161.409z M119.053,136.366l-26.566,8.96l-2.917-8.649
								c-1.889-5.601,1.131-11.695,6.733-13.586c5.601-1.888,11.696,1.132,13.585,6.733l0.167,0.495l4.786-1.613l-0.167-0.496
								c-2.779-8.238-11.744-12.684-19.984-9.904c-8.241,2.779-12.684,11.745-9.905,19.985l2.917,8.648l-1.461,0.494
								c-1.454,0.489-2.243,2.08-1.752,3.534l8.399,24.907c0.491,1.451,2.082,2.241,3.536,1.75l32.813-11.066
								c1.455-0.489,2.243-2.082,1.752-3.535l-8.399-24.905C122.098,136.665,120.507,135.876,119.053,136.366z M111.22,167.32
								c-5.702,1.923-11.883-1.142-13.805-6.842c-1.923-5.703,1.14-11.883,6.842-13.808c5.702-1.922,11.883,1.141,13.806,6.844
								C119.985,159.216,116.921,165.397,111.22,167.32z M104.706,148.005c-4.966,1.675-7.633,7.058-5.958,12.022
								c1.674,4.966,7.057,7.634,12.022,5.96c4.966-1.675,7.633-7.058,5.959-12.023
								C115.054,148.999,109.672,146.331,104.706,148.005z M111.66,161.409l-4.37,1.474l-1.222-6.754
								c-0.773-0.19-1.437-0.763-1.71-1.574c-0.428-1.269,0.254-2.643,1.522-3.069c1.267-0.426,2.641,0.253,3.069,1.521
								c0.273,0.811,0.091,1.668-0.409,2.289L111.66,161.409z"/>
						</g>
					</g>
				</g>
			</g>
		</g>
	</g>
</switch>
</svg>
